<?xml version="1.0" encoding="UTF-8"?> <svg xmlns="http://www.w3.org/2000/svg" width="64" height="48" viewBox="0 0 64 48" fill="none"><path fill-rule="evenodd" clip-rule="evenodd" d="M31.2925 43.3556C20.7009 43.3556 12.1147 34.7694 12.1147 24.1779C12.1147 13.5863 20.7009 5.00012 31.2925 5.00012C41.884 5.00012 50.4702 13.5863 50.4702 24.1779C50.4702 34.7694 41.884 43.3556 31.2925 43.3556Z" fill="#40B1D0"></path><path fill-rule="evenodd" clip-rule="evenodd" d="M20.3049 28.9669C20.2967 29.1419 20.2925 29.318 20.2925 29.495C20.2925 35.5701 25.2174 40.495 31.2925 40.495C37.3676 40.495 42.2925 35.5701 42.2925 29.495C42.2925 29.318 42.2883 29.1419 42.28 28.9669H20.3049Z" fill="#343A49"></path><path fill-rule="evenodd" clip-rule="evenodd" d="M40.9687 34.7308C39.1072 31.2979 35.472 28.9669 31.2925 28.9669C27.1129 28.9669 23.4778 31.2979 21.6162 34.7308C23.4778 38.1637 27.1129 40.4948 31.2925 40.4948C35.472 40.4948 39.1072 38.1637 40.9687 34.7308Z" fill="#8BC34A"></path></svg> 