<?xml version="1.0" encoding="UTF-8"?> <svg xmlns="http://www.w3.org/2000/svg" width="64" height="48" viewBox="0 0 64 48" fill="none"><rect x="9.03955" y="7.00012" width="44" height="35" rx="4" fill="#40B1D0"></rect><mask id="mask0_567_794" style="mask-type:alpha" maskUnits="userSpaceOnUse" x="14" y="18" width="18" height="21"><rect x="14.0396" y="18.0001" width="17" height="20" rx="4" fill="#F56F46"></rect></mask><g mask="url(#mask0_567_794)"><rect x="14.0396" y="18.0001" width="17" height="20" rx="4" fill="white"></rect><path d="M37.4111 39.0001H16.0397L22.3712 29.1512C24.5 25.8397 29.3574 25.8894 31.418 29.2438L37.4111 39.0001Z" fill="#8BC34A"></path></g><path d="M9.03955 11.0001C9.03955 8.79098 10.8304 7.00012 13.0396 7.00012H49.0396C51.2487 7.00012 53.0396 8.79098 53.0396 11.0001V12.0001H9.03955V11.0001Z" fill="#343A49"></path><rect x="35.0396" y="22.0001" width="13" height="3" rx="1.5" fill="white"></rect><rect x="35.0396" y="28.0001" width="8" height="1.5" rx="0.75" fill="#3694AE"></rect><rect x="35.0396" y="31.0001" width="6" height="1.5" rx="0.75" fill="#343A49"></rect></svg> 